{"title":"W.C.FIELDS_Comedy.Collection_You.Can't.Cheat.An.Honest.Man.1939.","uid":10969397,"size":4472647247,"categoryP":"video","categoryS":"movies","magnet":"?xt=urn:btih:55b7ef69776e475e89f02e0a836017bef10d227a&amp;dn=W.C.FIELDS_Comedy.Collection_You.Can%27t.Cheat.An.Honest.Man.1939.&amp;tr=udp%3A%2F%2Ftracker.openbittorrent.com%3A80&amp;tr=udp%3A%2F%2Fopen.demonii.com%3A1337&amp;tr=udp%3A%2F%2Ftracker.coppersurfer.tk%3A6969&amp;tr=udp%3A%2F%2Fexodus.desync.com%3A6969","seeders":2,"leechers":0,"uploader":"Agent666","files":-1,"time":1409780091,"description":"W.C.FIELDS_Comedy.Collection_You.Can't.Cheat.An.Honest.Man.1939.DVDRip.[3of5]-Agent666.mkv\n\nDVD (MKV) 3 OF 5\n\nâ– â– â– â– â– â– â– â– â– â– â– â– â– â– â– â– â– â– â– â– â– â– â– â– â– â– â– â– â– â– â– â–  I M D B : &lt;a href=&quot;\nhttp://www.imdb.com/title/tt0032152/&quot; rel=&quot;nofollow&quot; target=&quot;_NEW&quot;&gt;\nhttp://www.imdb.com/title/tt0032152/&lt;/a&gt;\n\nYou Can't Cheat An Honest Man (1939)\n70 min  -  Comedy\nRating:  7.3\nâ–  Cast:\nW.C. Fields (Larson E. Whipsnade)\nEdgar Bergen (The Great Edgar)\nCharlie McCarthy (Himself)\nMortimer Snerd (Himself)\nEddie &quot;Rochester&quot; Anderson (&quot;Rochester&quot;)\nJohn Arledge (Phineas Whipsnade)\n   There are many more, great character names!\nâ–  Story Line:\nLarson E. Whipsnade runs a seedy circus which is perpetually in debt. His performers give him nothing but trouble, especially Edgar Bergen and Charlie McCarthy. Meanwhile, Whipsnade's son and daughter, Phineas and Vicky, attend a posh college. Vicky turns down her caddish but rich suitor Roger Bel-Goodie, but changes her mind when she learns of her father's financial troubles. Will Vicky marry for money or succumb to the ventriloqual charm of Edgar Bergen? Will Whipsnade's Circus Giganticus make it over the state line one jump ahead of the sheriff?\n\nâ– â– â– â– â– â– â– â– â– â– â– â– â– â– â– â– â– â– â– â– â– â– â– â– â– â– â– â– â– â– â– â–  V I D E O :\n\nFormat                                   : Matroska\nFormat version                           : Version 4 / Version 2\nFile size                                : 4.17 GiB\nDuration                                 : 1h 18mn\nOverall bit rate mode                    : Variable\nOverall bit rate                         : 7 561 Kbps\nEncoded date                             : UTC 2014-09-02 21:45:12\nWriting application                      : mkvmerge v7.0.0 ('Where We Going') 64bit\nWriting library                          : libebml v1.3.0 + libmatroska v1.4.1\n\nâ–  VIDEO:\n\nVideo\nID                                       : 1\nFormat                                   : MPEG Video\nFormat version                           : Version 2\nFormat profile                           : Main@Main\nFormat settings, BVOP                    : No\nFormat settings, Matrix                  : Custom\nCodec ID                                 : V_MPEG2\nCodec ID/Info                            : MPEG 1 or 2 Video\nDuration                                 : 1h 18mn\nBit rate mode                            : Variable\nBit rate                                 : 7 219 Kbps\nMaximum bit rate                         : 9 800 Kbps\nWidth                                    : 720 pixels\nHeight                                   : 480 pixels\nDisplay aspect ratio                     : 4:3\nFrame rate mode                          : Constant\nFrame rate                               : 29.970 fps\nStandard                                 : NTSC\nColor space                              : YUV\nChroma subsampling                       : 4:2:0\nBit depth                                : 8 bits\nScan type                                : Interlaced\nScan order                               : Top Field First\nCompression mode                         : Lossy\nBits/(Pixel*Frame)                       : 0.697\nStream size                              : 3.98 GiB (95%)\nDefault                                  : Yes\nForced                                   : No\n\nâ–  AUDIO:\n\nID                                       : 2\nFormat                                   : AC-3\nFormat/Info                              : Audio Coding 3\nMode extension                           : CM (complete main)\nFormat settings, Endianness              : Big\nCodec ID                                 : A_AC3\nDuration                                 : 1h 18mn\nBit rate mode                            : Constant\nBit rate                                 : 192 Kbps\nChannel(s)                               : 2 channels\nChannel positions                        : Front: L R\nSampling rate                            : 48.0 KHz\nBit depth                                : 16 bits\nCompression mode                         : Lossy\nStream size                              : 108 MiB (3%)\nDefault                                  : Yes\nForced                                   : No\n\nâ– â– â– â– â– â– â– â– â– â– â– â– â– â– â– â– â– â– â– â– â– â– â– â– â– â– â– â– â– â– â– â– â– â– â– â– â– â– â– â– â– â– â– â– â– â– â– â– â– â– â– â– â– â– â– â– â– â– â– â– â– â– â– â– â– â– â– â– â– â– â– â– \n\nâ–  SCREENS: &lt;a href=&quot;\nhttp://i.imgur.com/f2OHIg4.jpg&quot; rel=&quot;nofollow&quot; target=&quot;_NEW&quot;&gt;\nhttp://i.imgur.com/f2OHIg4.jpg&lt;/a&gt;\n &lt;a href=&quot;\nhttp://i.imgur.com/c05bLq4.jpg&quot; rel=&quot;nofollow&quot; target=&quot;_NEW&quot;&gt;\nhttp://i.imgur.com/c05bLq4.jpg&lt;/a&gt;\n &lt;a href=&quot;\nhttp://i.imgur.com/xGzlZmU.jpg&quot; rel=&quot;nofollow&quot; target=&quot;_NEW&quot;&gt;\nhttp://i.imgur.com/xGzlZmU.jpg&lt;/a&gt;\n &lt;a href=&quot;\nhttp://i.imgur.com/noAGsre.jpg&quot; rel=&quot;nofollow&quot; target=&quot;_NEW&quot;&gt;\nhttp://i.imgur.com/noAGsre.jpg&lt;/a&gt;\n &lt;a href=&quot;\nhttp://i.imgur.com/kwAgUmQ.jpg&quot; rel=&quot;nofollow&quot; target=&quot;_NEW&quot;&gt;\nhttp://i.imgur.com/kwAgUmQ.jpg&lt;/a&gt;\n &lt;a href=&quot;\nhttp://i.imgur.com/O0ZaZsy.jpg&quot; rel=&quot;nofollow&quot; target=&quot;_NEW&quot;&gt;\nhttp://i.imgur.com/O0ZaZsy.jpg&lt;/a&gt;\n &lt;a href=&quot;\nhttp://i.imgur.com/2QhAWBU.jpg&quot; rel=&quot;nofollow&quot; target=&quot;_NEW&quot;&gt;\nhttp://i.imgur.com/2QhAWBU.jpg&lt;/a&gt;\n\nâ–  THUMBNAILS: http://i.imgur.com/WWrR5f3.jpg\n\nâ–  IMDB IMAGE: http://i.imgur.com/aNkeQNE.jpg\n\nâ–  DVD BOX IMAGE: http://i.imgur.com/OuHzpe3.jpg\n\nâ–  DVD COLLECTION TITLES: http://i.imgur.com/gD6NG5E.jpg\n\nâ–  MOVIE POSTER: http://i.imgur.com/GWCuFS0.jpg\n\nâ–  WIKIPEDIA: http://en.wikipedia.org/wiki/You_Can%27t_Cheat_an_Honest_Man\n\nâ–  IMDB: http://www.imdb.com/title/tt0032152/\n\nâ–  THIS IS DVD (MKV) 3 OF 5\n\nPLEASE CONTINUE TO SEED FOR AS LONG AS YOU CAN SO, THAT, OTHERS MAY ENJOY THIS TOO!\nThank you!\n","torrent":{"xt":"urn:btih:55b7ef69776e475e89f02e0a836017bef10d227a","amp;dn":"W.C.FIELDS_Comedy.Collection_You.Can%27t.Cheat.An.Honest.Man.1939.","amp;tr":["udp%3A%2F%2Ftracker.openbittorrent.com%3A80","udp%3A%2F%2Fopen.demonii.com%3A1337","udp%3A%2F%2Ftracker.coppersurfer.tk%3A6969","udp%3A%2F%2Fexodus.desync.com%3A6969"],"infoHash":"55b7ef69776e475e89f02e0a836017bef10d227a","infoHashBuffer":{"type":"Buffer","data":[85,183,239,105,119,110,71,94,137,240,46,10,131,96,23,190,241,13,34,122]},"announce":[],"urlList":[]}}